<?xml version="1.0" encoding="UTF-8" standalone="no"?>
<svg
   xmlns:dc="http://purl.org/dc/elements/1.1/"
   xmlns:cc="http://creativecommons.org/ns#"
   xmlns:rdf="http://www.w3.org/1999/02/22-rdf-syntax-ns#"
   xmlns:svg="http://www.w3.org/2000/svg"
   xmlns="http://www.w3.org/2000/svg"
   width="115.05515mm"
   height="46.877186mm"
   viewBox="0 0 115.05515 46.877186"
   version="1.1"
   id="svg5803">
  <defs
     id="defs5797" />
  <metadata
     id="metadata5800">
    <rdf:RDF>
      <cc:Work
         rdf:about="">
        <dc:format>image/svg+xml</dc:format>
        <dc:type
           rdf:resource="http://purl.org/dc/dcmitype/StillImage" />
        <dc:title></dc:title>
      </cc:Work>
    </rdf:RDF>
  </metadata>
  <g
     id="layer1"
     style="display:inline"
     transform="translate(-0.64226449,-210.30926)">
    <path
       id="path11825"
       style="font-style:normal;font-variant:normal;font-weight:normal;font-stretch:normal;font-size:23.98888969px;line-height:1.25;font-family:'04b_19';-inkscape-font-specification:'04b_19';letter-spacing:2.00675225px;word-spacing:0px;fill:#000000;fill-opacity:1;stroke:none;stroke-width:0.58085793"
       d="m 71.734506,210.30926 -1.058335,0.28115 5.199482,20.0277 1.058337,-0.28114 v -6.77619 l 5.874308,2.13874 1.058335,-0.28114 v -5.08215 l -6.932643,-1.85759 v -1.69405 l 5.874308,2.13875 1.058335,-0.28115 v -5.08213 z" />
    <path
       id="path11827"
       style="font-style:normal;font-variant:normal;font-weight:normal;font-stretch:normal;font-size:23.98888969px;line-height:1.25;font-family:'04b_19';-inkscape-font-specification:'04b_19';letter-spacing:2.00675225px;word-spacing:0px;fill:#000000;fill-opacity:1;stroke:none;stroke-width:0.58085793"
       d="m 94.582536,216.43137 -1.058337,0.28115 1.058337,13.27122 -1.733161,-0.4644 v -13.55237 l -5.199483,-1.39319 -1.058336,0.28114 1.058336,18.35337 11.07379,3.53194 1.058336,-0.28115 v -18.63451 z" />
    <path
       id="path11829"
       style="font-style:normal;font-variant:normal;font-weight:normal;font-stretch:normal;font-size:23.98888969px;line-height:1.25;font-family:'04b_19';-inkscape-font-specification:'04b_19';letter-spacing:2.00675225px;word-spacing:0px;fill:#000000;fill-opacity:1;stroke:none;stroke-width:0.58085793"
       d="m 108.76476,238.866 v -13.55238 l 1.73316,0.4644 4.14115,15.22672 1.05834,-0.28115 v -18.6345 l -12.13214,-3.2508 -1.05833,0.28115 5.19948,20.0277 z" />
    <path
       id="path11832"
       style="font-style:normal;font-variant:normal;font-weight:normal;font-stretch:normal;font-size:13.75833321px;line-height:1.25;font-family:'04b_19';-inkscape-font-specification:'04b_19';letter-spacing:0.46302083px;word-spacing:0px;fill:#000000;fill-opacity:1;stroke:none;stroke-width:0.28656217"
       d="m 76.087843,231.7164 -1.05833,0.28711 1.05833,3.34236 -1.064374,-0.2852 v -3.62946 l -3.193122,-0.8556 -1.058329,0.28711 3.193121,10.83659 1.05833,-0.2871 v -3.62946 l 1.064374,0.2852 2.134791,4.77215 1.05833,-0.2871 v -9.981 z" />
    <path
       id="path11834"
       style="font-style:normal;font-variant:normal;font-weight:normal;font-stretch:normal;font-size:13.75833321px;line-height:1.25;font-family:'04b_19';-inkscape-font-specification:'04b_19';letter-spacing:0.46302083px;word-spacing:0px;fill:#000000;fill-opacity:1;stroke:none;stroke-width:0.28656217"
       d="m 80.859295,232.99491 -1.05833,0.28711 1.05833,9.69389 6.392287,2.28349 1.05833,-0.2871 v -9.981 z m 4.257496,8.39971 -1.064374,-0.2852 v -4.53682 l 1.064374,0.2852 z" />
    <path
       id="path11836"
       style="font-style:normal;font-variant:normal;font-weight:normal;font-stretch:normal;font-size:13.75833321px;line-height:1.25;font-family:'04b_19';-inkscape-font-specification:'04b_19';letter-spacing:0.46302083px;word-spacing:0px;fill:#000000;fill-opacity:1;stroke:none;stroke-width:0.28656217"
       d="m 94.145738,236.555 -1.05833,0.28711 1.05833,6.97181 -1.064373,-0.2852 v -7.25892 l -3.193123,-0.85559 -1.058329,0.2871 1.058329,9.6939 6.392287,2.28349 1.058331,-0.2871 v -9.981 z" />
    <path
       id="path11838"
       style="font-style:normal;font-variant:normal;font-weight:normal;font-stretch:normal;font-size:13.75833321px;line-height:1.25;font-family:'04b_19';-inkscape-font-specification:'04b_19';letter-spacing:0.46302083px;word-spacing:0px;fill:#000000;fill-opacity:1;stroke:none;stroke-width:0.28656217"
       d="m 98.917191,237.83351 -1.058329,0.2871 1.058329,6.06445 4.257499,1.14079 v 0.90737 l -4.257499,-1.1408 -1.058329,0.28711 7.450618,4.71847 1.05833,-0.2871 v -6.35154 l -4.2575,-1.14079 v -0.90737 l 3.19917,1.4279 1.05833,-0.28711 v -2.72209 z" />
    <path
       id="path11840"
       style="font-style:normal;font-variant:normal;font-weight:normal;font-stretch:normal;font-size:13.75833321px;line-height:1.25;font-family:'04b_19';-inkscape-font-specification:'04b_19';letter-spacing:0.46302083px;word-spacing:0px;fill:#000000;fill-opacity:1;stroke:none;stroke-width:0.28656217"
       d="m 115.39676,252.2302 v -2.72209 l -4.2575,-1.14079 v -0.90737 l 3.19916,1.4279 1.05834,-0.28711 v -2.72208 l -4.2575,-1.14079 v -0.90737 l 3.19916,1.4279 1.05834,-0.28711 v -2.72209 l -7.45062,-1.99639 -1.05833,0.2871 1.05833,9.6939 6.39228,2.28349 z" />
    <path
       id="path11843"
       style="font-style:normal;font-variant:normal;font-weight:normal;font-stretch:normal;font-size:medium;line-height:1.25;font-family:BigNoodleTitling;-inkscape-font-specification:BigNoodleTitling;letter-spacing:0px;word-spacing:0px;fill:#000000;fill-opacity:1;stroke:none;stroke-width:0.87683856"
       d="m 6.2796613,233.93179 v -2.66699 c 0,-1.21355 -0.4068225,-1.71132 -1.2204674,-1.49331 l -0.4358811,0.1168 c -0.7942724,0.21282 -1.1914086,0.92601 -1.1914086,2.13956 v 5.03767 c 0,0.56444 0.07749,0.92468 0.2324699,1.08071 0.15498,0.15603 0.4068225,0.34254 0.7555275,0.55955 l 2.6443458,1.36579 c 0.5811749,0.32405 0.9879974,0.59604 1.2204675,0.81597 0.2518423,0.18652 0.4455672,0.45917 0.5811748,0.81794 0.1356076,0.33056 0.2034114,1.03206 0.2034114,2.1045 v 6.47701 c 0,3.41488 -0.3711956,5.71278 -2.6184058,6.31492 l -1.7144661,0.45939 c -2.2278379,0.59695 -4.09416471,-1.25663 -4.09416471,-4.98196 v -1.52401 l 2.78963971,-0.74748 1.0583333,0.29088 -1.0583333,0.53462 v 0.8255 c 0,1.18534 0.4165087,1.66641 1.2495261,1.4432 l 0.4939986,-0.13237 c 0.7361549,-0.19725 1.1042324,-0.88855 1.1042324,-2.07388 v -5.16467 c 0,-0.56445 -0.07749,-0.92468 -0.23247,-1.08071 -0.1549799,-0.15603 -0.4068224,-0.34255 -0.7555273,-0.55955 l -2.644346,-1.45046 c -0.5811749,-0.29583 -1.0073699,-0.56263 -1.2785848,-0.8004 -0.2518425,-0.24296 -0.43588127,-0.58876 -0.55211624,-1.03739 -0.11623498,-0.47685 -0.17435247,-1.11039 -0.17435247,-1.90061 v -6.223 c 0,-3.47134 1.11391861,-5.50548 3.34175581,-6.10243 l 1.7435248,-0.46717 c 2.2278373,-0.59695 4.6143749,0.53674 3.9701414,3.94778 l -0.6283854,3.32712 -1.7313065,1.03836 z" />
    <path
       id="path11845"
       style="font-style:normal;font-variant:normal;font-weight:normal;font-stretch:normal;font-size:medium;line-height:1.25;font-family:BigNoodleTitling;-inkscape-font-specification:BigNoodleTitling;letter-spacing:0px;word-spacing:0px;fill:#000000;fill-opacity:1;stroke:none;stroke-width:0.87683856"
       d="m 14.020185,254.08272 -1.731306,1.03836 -1.058333,-0.29087 v -25.18832 c 0,-3.47134 1.113919,-5.50548 3.341756,-6.10243 l 2.092229,-0.56061 c 2.227837,-0.59695 4.413552,0.7269 4.284334,4.19582 l -0.942578,25.30408 -1.731306,1.03836 -1.058334,-0.29088 v -11.13366 l -3.196462,0.85649 z m 3.196462,-15.67315 v -10.11766 c 0,-1.18533 -0.406822,-1.66899 -1.220467,-1.45097 l -0.755527,0.20244 c -0.813645,0.21801 -1.220468,0.91969 -1.220468,2.10502 v 10.11766 z" />
    <path
       id="path11847"
       style="font-style:normal;font-variant:normal;font-weight:normal;font-stretch:normal;font-size:medium;line-height:1.25;font-family:BigNoodleTitling;-inkscape-font-specification:BigNoodleTitling;letter-spacing:0px;word-spacing:0px;fill:#000000;fill-opacity:1;stroke:none;stroke-width:0.87683856"
       d="m 26.889123,223.92218 v 26.71232 l -1.731306,1.03836 -1.058334,-0.29088 v -26.71232 l -1.615071,1.0072 -1.058333,-0.29086 v -3.683 l 8.136449,-2.18016 1.058334,0.29088 -1.058334,3.39212 z" />
    <path
       id="path11849"
       style="font-style:normal;font-variant:normal;font-weight:normal;font-stretch:normal;font-size:medium;line-height:1.25;font-family:BigNoodleTitling;-inkscape-font-specification:BigNoodleTitling;letter-spacing:0px;word-spacing:0px;fill:#000000;fill-opacity:1;stroke:none;stroke-width:0.87683856"
       d="m 33.771052,248.7905 -1.731307,1.03835 -1.058334,-0.29087 v -25.18832 c 0,-3.47134 1.113919,-5.50548 3.341757,-6.10243 l 2.092229,-0.56061 c 2.227838,-0.59695 4.431179,0.56207 4.300586,4.03095 l -0.958829,25.46895 -1.731307,1.03836 -1.058334,-0.29087 v -11.13367 l -3.196461,0.85649 z m 3.196461,-15.67316 v -10.11766 c 0,-1.18533 -0.406822,-1.66899 -1.220467,-1.45097 l -0.755528,0.20244 c -0.813644,0.21801 -1.220466,0.91969 -1.220466,2.10502 v 10.11766 z" />
    <path
       id="path11851"
       style="font-style:normal;font-variant:normal;font-weight:normal;font-stretch:normal;font-size:medium;line-height:1.25;font-family:BigNoodleTitling;-inkscape-font-specification:BigNoodleTitling;letter-spacing:0px;word-spacing:0px;fill:#000000;fill-opacity:1;stroke:none;stroke-width:0.87683856"
       d="m 47.97669,229.27845 v -14.68967 l 2.78964,-0.74748 1.058333,0.29087 -2.78964,31.14281 -1.058333,-0.29087 v -6.05366 l -2.993051,-13.04102 v 19.89666 l -1.731306,1.03836 -1.058333,-0.29088 v -30.39532 l 2.789639,-0.74748 1.058334,0.29087 z" />
    <path
       id="path11853"
       style="font-style:normal;font-variant:normal;font-weight:normal;font-stretch:normal;font-size:medium;line-height:1.25;font-family:BigNoodleTitling;-inkscape-font-specification:BigNoodleTitling;letter-spacing:0px;word-spacing:0px;fill:#000000;fill-opacity:1;stroke:none;stroke-width:0.87683856"
       d="m 52.415868,213.39931 2.760581,-0.7397 1.058333,0.29088 -2.411875,13.26158 -1.058334,-0.29086 z" />
    <path
       id="path11855"
       style="font-style:normal;font-variant:normal;font-weight:normal;font-stretch:normal;font-size:medium;line-height:1.25;font-family:BigNoodleTitling;-inkscape-font-specification:BigNoodleTitling;letter-spacing:0px;word-spacing:0px;fill:#000000;fill-opacity:1;stroke:none;stroke-width:0.87683856"
       d="m 62.183697,218.95235 v -2.66699 c 0,-1.21355 -0.406823,-1.71132 -1.220468,-1.49331 l -0.435881,0.11679 c -0.794272,0.21283 -1.191408,0.92602 -1.191408,2.13957 v 5.03767 c 0,0.56444 0.07749,0.92468 0.232469,1.08071 0.154981,0.15603 0.406823,0.34254 0.755528,0.55955 l 2.644346,1.36579 c 0.581175,0.32405 0.987997,0.59604 1.220468,0.81597 0.251842,0.18652 0.445567,0.45917 0.581175,0.81794 0.135607,0.33056 0.20341,1.03206 0.20341,2.1045 v 6.47701 c 0,3.41488 -0.281706,5.69233 -2.528915,6.29447 l -1.714466,0.45939 C 58.502117,242.65836 56.5463,240.82523 56.5463,237.0999 v -1.52401 l 2.78964,-0.74748 1.058333,0.29088 -1.058333,0.53462 v 0.8255 c 0,1.18533 0.416508,1.6664 1.249525,1.4432 l 0.493999,-0.13237 c 0.736155,-0.19725 1.104233,-0.88855 1.104233,-2.07388 v -5.16468 c 0,-0.56444 -0.07749,-0.92467 -0.23247,-1.0807 -0.154981,-0.15603 -0.406823,-0.34255 -0.755527,-0.55955 l -2.644347,-1.45046 c -0.581175,-0.29583 -1.00737,-0.56263 -1.278585,-0.8004 -0.251842,-0.24297 -0.435881,-0.58876 -0.552116,-1.03739 -0.116235,-0.47685 -0.174352,-1.11039 -0.174352,-1.90062 v -6.22299 c 0,-3.47134 1.113919,-5.50548 3.341756,-6.10243 l 1.743525,-0.46718 c 2.227837,-0.59695 4.683422,0.62825 3.996565,4.03096 l -0.65481,3.24395 -1.731306,1.03836 z" />
    <path
       id="path11858"
       style="font-style:normal;font-variant:normal;font-weight:normal;font-stretch:normal;font-size:23.98888969px;line-height:1.25;font-family:'04b_19';-inkscape-font-specification:'04b_19';letter-spacing:2.00675225px;word-spacing:0px;fill:#e7411a;fill-opacity:1;stroke:none;stroke-width:0.58085793"
       d="m 70.676171,210.59041 v 18.63451 l 5.199482,1.39319 v -6.77618 l 6.932645,1.85759 v -5.08213 l -6.932645,-1.8576 v -1.69405 l 6.932645,1.8576 v -5.08214 z" />
    <path
       id="path11860"
       style="font-style:normal;font-variant:normal;font-weight:normal;font-stretch:normal;font-size:23.98888969px;line-height:1.25;font-family:'04b_19';-inkscape-font-specification:'04b_19';letter-spacing:2.00675225px;word-spacing:0px;fill:#e78e1a;fill-opacity:1;stroke:none;stroke-width:0.58085793"
       d="m 93.524199,216.71252 v 13.55237 l -1.73316,-0.4644 v -13.55237 l -5.199483,-1.3932 v 18.63451 l 12.132126,3.2508 v -18.63451 z" />
    <path
       id="path11862"
       style="font-style:normal;font-variant:normal;font-weight:normal;font-stretch:normal;font-size:23.98888969px;line-height:1.25;font-family:'04b_19';-inkscape-font-specification:'04b_19';letter-spacing:2.00675225px;word-spacing:0px;fill:#f8ed37;fill-opacity:1;stroke:none;stroke-width:0.58085793"
       d="m 107.70642,239.14714 v -13.55237 l 1.73317,0.4644 v 13.55237 l 5.19948,1.3932 v -18.63451 l -12.13213,-3.25079 v 18.63451 z" />
    <path
       id="path11865"
       style="font-style:normal;font-variant:normal;font-weight:normal;font-stretch:normal;font-size:13.75833321px;line-height:1.25;font-family:'04b_19';-inkscape-font-specification:'04b_19';letter-spacing:0.46302083px;word-spacing:0px;fill:#46d215;fill-opacity:1;stroke:none;stroke-width:0.28656217"
       d="m 75.029513,232.00351 v 3.62945 l -1.064374,-0.2852 v -3.62945 l -3.193121,-0.85559 v 9.981 l 3.193121,0.85559 v -3.62945 l 1.064374,0.2852 v 3.62945 l 3.193121,0.85559 v -9.981 z" />
    <path
       id="path11867"
       style="font-style:normal;font-variant:normal;font-weight:normal;font-stretch:normal;font-size:13.75833321px;line-height:1.25;font-family:'04b_19';-inkscape-font-specification:'04b_19';letter-spacing:0.46302083px;word-spacing:0px;fill:#69b6de;fill-opacity:1;stroke:none;stroke-width:0.28656217"
       d="m 79.800965,233.28202 v 9.981 l 7.450617,1.99638 v -9.981 z m 4.257495,8.3997 -1.064373,-0.2852 v -4.53681 l 1.064373,0.28519 z" />
    <path
       id="path11869"
       style="font-style:normal;font-variant:normal;font-weight:normal;font-stretch:normal;font-size:13.75833321px;line-height:1.25;font-family:'04b_19';-inkscape-font-specification:'04b_19';letter-spacing:0.46302083px;word-spacing:0px;fill:#6988de;fill-opacity:1;stroke:none;stroke-width:0.28656217"
       d="m 93.087408,236.84211 v 7.25891 l -1.064374,-0.2852 v -7.25891 l -3.193121,-0.8556 v 9.98101 l 7.450616,1.99638 v -9.981 z" />
    <path
       id="path11871"
       style="font-style:normal;font-variant:normal;font-weight:normal;font-stretch:normal;font-size:13.75833321px;line-height:1.25;font-family:'04b_19';-inkscape-font-specification:'04b_19';letter-spacing:0.46302083px;word-spacing:0px;fill:#7f69de;fill-opacity:1;stroke:none;stroke-width:0.28656217"
       d="m 97.858862,238.12061 v 6.35155 l 4.257498,1.1408 v 0.90736 l -4.257498,-1.14079 v 2.72209 l 7.450618,1.99638 v -6.35155 l -4.2575,-1.14079 v -0.90736 l 4.2575,1.1408 v -2.7221 z" />
    <path
       id="path11873"
       style="font-style:normal;font-variant:normal;font-weight:normal;font-stretch:normal;font-size:13.75833321px;line-height:1.25;font-family:'04b_19';-inkscape-font-specification:'04b_19';letter-spacing:0.46302083px;word-spacing:0px;fill:#c769de;fill-opacity:1;stroke:none;stroke-width:0.28656217"
       d="m 114.33842,252.5173 v -2.72209 l -4.25749,-1.14079 v -0.90736 l 4.25749,1.14079 v -2.7221 l -4.25749,-1.14079 v -0.90736 l 4.25749,1.1408 v -2.7221 l -7.45061,-1.99639 v 9.981 z" />
    <path
       id="path11876"
       style="font-style:normal;font-variant:normal;font-weight:normal;font-stretch:normal;font-size:medium;line-height:1.25;font-family:BigNoodleTitling;-inkscape-font-specification:BigNoodleTitling;letter-spacing:0px;word-spacing:0px;fill:#aa0000;fill-opacity:1;stroke:none;stroke-width:0.87683856"
       d="m 7.3379946,234.22267 v -2.667 q 0,-1.82034 -1.2204673,-1.49332 l -0.4358812,0.1168 q -1.1914086,0.31923 -1.1914086,2.13958 v 5.03766 q 0,0.84667 0.2324699,1.0807 0.23247,0.23405 0.7555275,0.55957 l 2.6443459,1.36578 q 0.8717626,0.48607 1.2204671,0.81598 0.3777637,0.27977 0.5811751,0.81794 0.203411,0.49583 0.203411,2.10449 v 6.477 q 0,5.12233 -3.3708143,6.02554 l -1.714466,0.45939 Q 1.7005978,257.9582 1.7005978,252.3702 v -1.52399 l 2.7896397,-0.74748 v 1.65099 q 0,1.778 1.2495261,1.44319 l 0.4939987,-0.13237 q 1.1042323,-0.29588 1.1042323,-2.07388 V 245.822 q 0,-0.84667 -0.2324699,-1.0807 -0.23247,-0.23405 -0.7555274,-0.55957 l -2.644346,-1.45045 q -0.8717624,-0.44375 -1.2785848,-0.80039 -0.3777637,-0.36445 -0.5521162,-1.0374 -0.1743525,-0.71529 -0.1743525,-1.90062 v -6.223 q 0,-5.20699 3.3417559,-6.10241 l 1.7435247,-0.46718 q 3.3417556,-0.89542 3.3417556,4.31157 v 2.96334 z" />
    <path
       id="path11878"
       style="font-style:normal;font-variant:normal;font-weight:normal;font-stretch:normal;font-size:medium;line-height:1.25;font-family:BigNoodleTitling;-inkscape-font-specification:BigNoodleTitling;letter-spacing:0px;word-spacing:0px;fill:#aa0000;fill-opacity:1;stroke:none;stroke-width:0.87683856"
       d="m 15.078518,254.3736 -2.789639,0.74748 v -25.18833 q 0,-5.20699 3.341756,-6.10242 l 2.09223,-0.56061 q 3.341755,-0.89542 3.341755,4.31157 v 25.18834 l -2.789639,0.74748 v -11.13366 l -3.196463,0.85649 z m 3.196463,-15.67316 v -10.11767 q 0,-1.778 -1.220468,-1.45097 l -0.755527,0.20244 q -1.220468,0.32702 -1.220468,2.10502 v 10.11767 z" />
    <path
       id="path11880"
       style="font-style:normal;font-variant:normal;font-weight:normal;font-stretch:normal;font-size:medium;line-height:1.25;font-family:BigNoodleTitling;-inkscape-font-specification:BigNoodleTitling;letter-spacing:0px;word-spacing:0px;fill:#aa0000;fill-opacity:1;stroke:none;stroke-width:0.87683856"
       d="m 27.947457,224.21304 v 26.71234 l -2.78964,0.74748 v -26.71234 l -2.673405,0.71634 v -3.68299 l 8.13645,-2.18015 v 3.68298 z" />
    <path
       id="path11882"
       style="font-style:normal;font-variant:normal;font-weight:normal;font-stretch:normal;font-size:medium;line-height:1.25;font-family:BigNoodleTitling;-inkscape-font-specification:BigNoodleTitling;letter-spacing:0px;word-spacing:0px;fill:#aa0000;fill-opacity:1;stroke:none;stroke-width:0.87683856"
       d="m 34.829385,249.08137 -2.78964,0.74748 v -25.18833 q 0,-5.20699 3.341756,-6.10241 l 2.09223,-0.56062 q 3.341756,-0.89542 3.341756,4.31158 v 25.18833 l -2.78964,0.74748 v -11.13366 l -3.196462,0.85649 z m 3.196462,-15.67315 v -10.11767 q 0,-1.77801 -1.220467,-1.45098 l -0.755528,0.20244 q -1.220467,0.32702 -1.220467,2.10503 v 10.11766 z" />
    <path
       id="path11884"
       style="font-style:normal;font-variant:normal;font-weight:normal;font-stretch:normal;font-size:medium;line-height:1.25;font-family:BigNoodleTitling;-inkscape-font-specification:BigNoodleTitling;letter-spacing:0px;word-spacing:0px;fill:#aa0000;fill-opacity:1;stroke:none;stroke-width:0.87683856"
       d="m 49.035023,229.56932 v -14.68966 l 2.78964,-0.74749 v 30.39533 l -2.78964,0.74748 v -6.05367 l -2.99305,-13.041 v 19.89666 l -2.78964,0.74748 v -30.39533 l 2.78964,-0.74748 z" />
    <path
       id="path11886"
       style="font-style:normal;font-variant:normal;font-weight:normal;font-stretch:normal;font-size:medium;line-height:1.25;font-family:BigNoodleTitling;-inkscape-font-specification:BigNoodleTitling;letter-spacing:0px;word-spacing:0px;fill:#aa0000;fill-opacity:1;stroke:none;stroke-width:0.87683856"
       d="m 53.474201,213.69018 2.760581,-0.73969 -0.348705,12.70876 -2.06317,0.55282 z" />
    <path
       id="path11888"
       style="font-style:normal;font-variant:normal;font-weight:normal;font-stretch:normal;font-size:medium;line-height:1.25;font-family:BigNoodleTitling;-inkscape-font-specification:BigNoodleTitling;letter-spacing:0px;word-spacing:0px;fill:#aa0000;fill-opacity:1;stroke:none;stroke-width:0.87683856"
       d="m 63.24203,219.24323 v -2.667 q 0,-1.82034 -1.220468,-1.49332 l -0.435881,0.1168 q -1.191408,0.31923 -1.191408,2.13958 v 5.03766 q 0,0.84667 0.23247,1.0807 0.23247,0.23405 0.755527,0.55957 l 2.644346,1.36578 q 0.871762,0.48607 1.220468,0.81598 0.377763,0.27977 0.581175,0.81794 0.20341,0.49583 0.20341,2.10449 v 6.477 q 0,5.12233 -3.370814,6.02554 l -1.714466,0.45939 q -3.341756,0.89542 -3.341756,-4.69258 v -1.52399 l 2.78964,-0.74748 v 1.65099 q 0,1.778 1.249526,1.44319 l 0.493999,-0.13237 q 1.104232,-0.29588 1.104232,-2.07388 v -5.16466 q 0,-0.84667 -0.23247,-1.0807 -0.23247,-0.23405 -0.755527,-0.55957 l -2.644347,-1.45045 q -0.871762,-0.44375 -1.278584,-0.80039 -0.377764,-0.36445 -0.552116,-1.0374 -0.174353,-0.71529 -0.174353,-1.90062 v -6.223 q 0,-5.20699 3.341756,-6.10242 l 1.743525,-0.46717 q 3.341755,-0.89542 3.341755,4.31157 v 2.96334 z" />
  </g>
</svg>
